<svg width="144" height="64" xmlns="http://www.w3.org/2000/svg"><path d="M22.4 33.3h39.9v21.34H22.4V33.3zM64.72 7.63l-1.76 5.58h-15.3v10h19.92l-1.6 5.7h-48.5v-5.7h20.74v-10h-8.7l-1.55 5.4h-9.5L22.7 3.57h9.57L31.3 6.8l-.24.82h7.16v-6.4h9.43v6.4h17.08zm1.43 56.16H0v-5.7h4.15V25.8H0v-4.68h13.58V58.1h54.24l-1.66 5.68zm-36.3-25.9V50H54.9V37.9H29.88zM2.2 2.9h9.03l2.4 11.47H4.4L2.18 2.95zM130.44 1l-2.28 6.2h15.5l-.9 4.67h-2V26.4l-5.44 14.83 8.7 21.74h-9.12l-4.46-11.27-4.62 11.27h-9.04l8.37-22.24-7.5-19.3h8.97l3.4 9.55 2.2-6.3v-12.8h-15.77l4.47-10.86h9.52zM116.2 63.6l-19.04-5.7L77.64 64l-.4-6.7 8.94-2.64L77.23 52l2.52-7.3h-5.12v-5.2h6.6l.96-3.45h9.2l-.98 3.46h28.13l-1 5.2h-4.36l1.05 7.6-6.2 2.1 8.06 2.44v6.8zm-11-14.73l-1.04-4.16H88.7L87.4 48l10.16 3.15 7.65-2.35zm-16.94-37.1H80l-2.2-8.62h8.1l2.35 8.63zm24.28 0h-8.1l2.04-8.62h8.25l-2.2 8.63zm3.5 21.85h-8.83l-2.6-11.17h8.1l3.3 11.17zM80.4 19.92h-5.77v-5.4h17V.2h9.2v14.32h16.98l-1.7 5.4h-15.2v15.22h-9.2V19.9h-3.4l-3.4 13.73h-7.83l3.33-13.7z" fill="#FFF" fill-rule="evenodd"/></svg>